<svg width="262" height="59" viewBox="0 0 262 59" fill="none" xmlns="http://www.w3.org/2000/svg">
<g clip-path="url(#clip0_1954_8143)">
<g clip-path="url(#clip1_1954_8143)">
<path d="M97.7821 41.7267C93.7255 45.783 89.6715 49.8445 85.6072 53.8957C83.7002 55.7975 81.0913 56.2568 78.8617 55.0569C78.2966 54.7524 77.765 54.3421 77.3082 53.8906C72.813 49.4239 68.3332 44.9392 63.856 40.4545C61.4277 38.0212 61.4226 34.5919 63.8586 32.1483C68.3951 27.5991 72.942 23.0602 77.4863 18.5161C81.0577 14.9449 84.624 11.3685 88.2032 7.80496C90.2237 5.78969 92.9746 5.41553 95.3074 6.84248C95.7409 7.10826 96.1434 7.44887 96.5047 7.80754C100.995 12.2819 105.475 16.764 109.954 21.2487C112.383 23.682 112.388 27.1062 109.952 29.5524C105.903 33.6165 101.839 37.6703 97.7821 41.7267ZM96.2338 40.1784C100.267 36.1453 104.3 32.1147 108.331 28.0816C109.993 26.4198 109.996 24.3891 108.331 22.7247C103.9 18.2916 99.4671 13.8585 95.0338 9.42802C93.3694 7.76368 91.3385 7.76626 89.6767 9.42802C81.61 17.4917 73.5459 25.558 65.4792 33.6243C63.8173 35.286 63.8173 37.3194 65.4792 38.9811C69.9099 43.4142 74.3432 47.8473 78.7766 52.2778C80.441 53.9396 82.4719 53.937 84.1337 52.2778C88.1671 48.2447 92.2004 44.2141 96.2312 40.181L96.2338 40.1784Z" fill="black"/>
<path d="M112.292 18.9096C107.812 14.4224 103.327 9.94024 98.8374 5.46328C98.2413 4.86979 97.6529 4.39758 97.031 4.01826C93.3744 1.78365 88.9953 2.34876 85.8729 5.4607C83.3414 7.98431 80.8151 10.5131 78.2861 13.0419L71.1768 20.1508C67.9563 23.3685 64.7359 26.5889 61.5205 29.8117C57.8304 33.512 57.8304 39.0882 61.5205 42.7807C65.43 46.6952 70.2943 51.5695 74.9831 56.2271C75.6824 56.9186 76.4824 57.5173 77.2978 57.9585C78.6216 58.6707 80.0383 59.0191 81.4473 59.0191C83.7826 59.0191 86.1 58.0643 87.9399 56.2297C90.8275 53.35 93.7125 50.4651 96.5949 47.5802L103.735 40.4403C106.589 37.589 109.443 34.7377 112.292 31.8786C116.039 28.1164 116.039 22.6615 112.292 18.9096ZM105.996 25.7399L81.8008 49.9336C81.6408 50.0935 81.5195 50.171 81.455 50.2019C81.3905 50.171 81.2692 50.0935 81.1118 49.9336C76.6785 45.503 72.2452 41.0725 67.817 36.6394C67.657 36.4795 67.5796 36.3582 67.5486 36.2962C67.5796 36.2317 67.657 36.1105 67.817 35.9505L92.0119 11.7568C92.1693 11.5994 92.2932 11.5194 92.3551 11.4885C92.4196 11.5194 92.5409 11.5968 92.6983 11.7568C97.1317 16.1873 101.565 20.6179 105.996 25.0535C106.156 25.2135 106.233 25.3348 106.264 25.3967C106.233 25.4612 106.156 25.5825 105.996 25.7399Z" fill="#1D44F7"/>
<path d="M96.2338 40.1721C92.2004 44.2053 88.1697 48.2384 84.1363 52.269C82.4745 53.9307 80.441 53.9333 78.7792 52.269C74.3458 47.8385 69.9125 43.4054 65.4818 38.9723C63.8199 37.3079 63.8225 35.2746 65.4818 33.6154C73.5459 25.5491 81.6126 17.4854 89.6793 9.41917C91.3411 7.7574 93.372 7.75482 95.0364 9.41917C99.4697 13.8497 103.903 18.2828 108.334 22.7159C109.996 24.3802 109.996 26.411 108.334 28.0727C104.303 32.1059 100.27 36.139 96.2363 40.1696L96.2338 40.1721ZM73.711 44.0685C74.9935 45.3406 77.0631 45.3432 78.3405 44.0737C79.6307 42.7887 79.641 40.6908 78.3611 39.3954C77.0915 38.1104 74.9703 38.1156 73.6852 39.4032C72.3975 40.696 72.4079 42.7732 73.711 44.0685ZM100.141 17.6609C99.1343 16.6546 98.1304 15.643 97.1189 14.6419C96.5667 14.0948 95.9628 14.0561 95.4854 14.518C94.9977 14.9902 95.0261 15.6405 95.5757 16.1927C97.5627 18.1847 99.5523 20.1742 101.544 22.1637C102.104 22.721 102.744 22.7597 103.219 22.2824C103.699 21.7998 103.658 21.1909 103.085 20.6129C102.107 19.6246 101.121 18.6466 100.138 17.6635L100.141 17.6609Z" fill="white"/>
<path d="M73.7111 44.0705C72.4079 42.7777 72.395 40.6979 73.6853 39.4051C74.9704 38.1175 77.0916 38.115 78.3612 39.3974C79.6411 40.6902 79.6308 42.7906 78.3405 44.0756C77.0632 45.3452 74.9936 45.3452 73.7111 44.0705ZM76.8077 42.5016C77.2206 42.0836 77.2154 41.3998 76.8 40.974C76.369 40.5328 75.6568 40.5276 75.2362 40.9637C74.8284 41.3843 74.8284 42.081 75.2362 42.499C75.6619 42.9325 76.3819 42.9351 76.8077 42.5042V42.5016Z" fill="#1D44F7"/>
<path d="M100.14 17.6597C101.124 18.6428 102.109 19.6233 103.087 20.609C103.66 21.1871 103.701 21.796 103.222 22.2786C102.744 22.7585 102.104 22.7172 101.547 22.1599C99.5546 20.173 97.565 18.1835 95.578 16.1889C95.0284 15.6367 95 14.9864 95.4877 14.5142C95.9625 14.0523 96.5664 14.091 97.1212 14.638C98.1327 15.6392 99.1366 16.6507 100.143 17.6571L100.14 17.6597Z" fill="#1D44F7"/>
<path d="M76.808 42.503C76.3822 42.934 75.6622 42.9314 75.2364 42.4979C74.8287 42.0799 74.8261 41.3832 75.2364 40.9626C75.6571 40.529 76.3693 40.5342 76.8002 40.9729C77.2183 41.3986 77.2209 42.0824 76.808 42.5005V42.503Z" fill="white"/>
<path d="M132.681 16.8182C130.663 15.4532 128.194 14.7591 125.342 14.7591C123.371 14.7591 121.636 15.079 120.186 15.7112C118.973 16.2376 118.101 16.715 117.541 17.1588V3.03125H109.812V44.0154L109.936 44.0593C111.27 44.5186 113.033 44.9624 115.17 45.3753C117.314 45.7907 119.688 46.0023 122.222 46.0023C125.649 46.0023 128.64 45.2592 131.112 43.7935C133.582 42.3279 135.525 40.3539 136.887 37.9257C138.247 35.4976 138.939 32.7805 138.939 29.8517C138.939 27.0933 138.397 24.549 137.331 22.2886C136.263 20.0256 134.699 18.1832 132.684 16.8208L132.681 16.8182ZM131.084 30.0375C131.084 31.6219 130.733 33.1391 130.041 34.5403C129.352 35.9388 128.333 37.0897 127.017 37.9619C125.703 38.8315 124.047 39.2727 122.096 39.2727C120.782 39.2727 119.809 39.2108 119.2 39.0895C118.625 38.9734 118.068 38.8418 117.539 38.6947V27.7926C117.539 25.8573 118.109 24.3168 119.231 23.215C120.354 22.1106 122.011 21.5532 124.155 21.5532C125.768 21.5532 127.094 21.948 128.095 22.7299C129.104 23.5169 129.861 24.5697 130.346 25.8625C130.833 27.1656 131.081 28.5719 131.081 30.0401L131.084 30.0375Z" fill="#1D44F7"/>
<path d="M152.161 4.13281H144.433V46.1053H152.161V4.13281Z" fill="#1D44F7"/>
<path d="M171.804 36.2098L162.889 15.861L162.84 15.75H153.947L167.931 45.6773L167.023 47.9764C166.367 49.6949 165.704 50.9799 165.054 51.7953C164.419 52.5875 163.65 52.9746 162.703 52.9746C161.993 52.9746 161.397 52.8275 160.928 52.5359C160.435 52.2288 159.981 51.9063 159.573 51.5812L159.413 51.4547L155.908 56.9432L156.037 57.0464C156.881 57.7199 157.875 58.2773 158.987 58.6953C160.104 59.1159 161.524 59.3301 163.201 59.3301C165.183 59.3301 166.834 58.8991 168.107 58.0528C169.371 57.209 170.429 56.1097 171.25 54.7834C172.063 53.4726 172.78 52.0147 173.386 50.4484C173.988 48.8924 174.586 47.3906 175.162 45.9946L188.232 15.75H179.781L171.802 36.2098H171.804Z" fill="#1D44F7"/>
<path d="M249.143 30.3911L260.309 15.75H251.548L244.983 24.8355L238.48 15.75H228.726L240.201 31.1368L228.958 46.1056H237.716L244.358 36.6975L250.939 46.1056H260.69L249.143 30.3911Z" fill="#1D44F7"/>
<path d="M61.1205 19.1177C59.1181 16.9037 56.2072 15.7812 52.4706 15.7812C50.4191 15.7812 48.5689 16.1115 46.9741 16.7618C45.4697 17.3759 43.9808 18.4081 42.546 19.8299C41.1112 18.4081 39.6223 17.3759 38.1178 16.7618C36.5231 16.1115 34.6728 15.7812 32.6213 15.7812C28.8847 15.7812 25.9739 16.9037 23.9714 19.1177C21.9715 21.3265 20.96 24.3378 20.96 28.0664V46.0259H27.2203V28.1284C27.2203 26.3531 27.677 24.9468 28.5776 23.9482C29.4731 22.9547 30.7169 22.449 32.2781 22.449C34.2496 22.449 35.8495 23.1818 37.034 24.6268C38.2262 26.0821 38.8326 27.891 38.8326 29.9991V46.0259H46.2645V29.9991C46.2645 27.891 46.8709 26.0821 48.0631 24.6268C49.2476 23.1818 50.8475 22.449 52.819 22.449C54.3777 22.449 55.624 22.9521 56.5195 23.9482C57.4201 24.9493 57.8768 26.3556 57.8768 28.1284V46.0259H65.2365L64.1346 44.4054V28.0639C64.1346 24.3326 63.123 21.3239 61.1257 19.1151L61.1205 19.1177Z" fill="#1D44F7"/>
<path d="M207.452 1.32031C201.958 1.32031 195.54 4.51998 195.54 13.541V15.7833H189.801V22.8252H195.54V46.0977H203.516V22.8252H212.561V15.7833H203.516V13.541C203.516 10.2175 205.173 8.23573 207.95 8.23573C209.413 8.23573 210.866 8.74149 212.527 9.82783L212.7 9.94136L215.67 3.93424L215.534 3.8465C213.028 2.21828 210.158 1.32289 207.449 1.32289L207.452 1.32031Z" fill="#1D44F7"/>
<path d="M225.902 15.9531H217.926V46.0946H225.902V15.9531Z" fill="#1D44F7"/>
<path d="M221.915 13.6907C224.498 13.6907 226.591 11.6193 226.591 9.06412C226.591 6.50891 224.498 4.4375 221.915 4.4375C219.333 4.4375 217.239 6.50891 217.239 9.06412C217.239 11.6193 219.333 13.6907 221.915 13.6907Z" fill="#1D44F7"/>
</g>
</g>
<defs>
<clipPath id="clip0_1954_8143">
<rect width="262" height="59" fill="white"/>
</clipPath>
<clipPath id="clip1_1954_8143">
<rect width="239.73" height="58.0044" fill="white" transform="translate(20.96 1.32031)"/>
</clipPath>
</defs>
</svg>
