<svg width="123" height="30" viewBox="0 0 123 30" fill="none" xmlns="http://www.w3.org/2000/svg">
<g clip-path="url(#clip0_1954_8593)">
<path d="M39.4152 20.9001C37.3338 22.998 35.2538 25.0986 33.1685 27.1939C32.1901 28.1775 30.8515 28.4151 29.7076 27.7945C29.4176 27.637 29.1449 27.4248 28.9105 27.1913C26.6041 24.8811 24.3056 22.5616 22.0085 20.2421C20.7626 18.9836 20.76 17.2099 22.0098 15.9461C24.3374 13.5932 26.6703 11.2457 29.0019 8.89551C30.8343 7.04846 32.6641 5.19873 34.5005 3.35568C35.5372 2.31337 36.9485 2.11986 38.1454 2.85788C38.3679 2.99534 38.5744 3.1715 38.7598 3.35701C41.0636 5.67117 43.362 7.98933 45.6605 10.3088C46.9064 11.5673 46.909 13.3383 45.6592 14.6035C43.5818 16.7055 41.4965 18.8021 39.4152 20.9001ZM38.6208 20.0993C40.6902 18.0134 42.7596 15.9287 44.8277 13.8428C45.6804 12.9833 45.6817 11.933 44.8277 11.0722C42.5544 8.77941 40.2797 6.4866 38.0051 4.19513C37.1511 3.33432 36.1091 3.33566 35.2565 4.19513C31.1176 8.36569 26.9801 12.5376 22.8413 16.7095C21.9886 17.5689 21.9886 18.6206 22.8413 19.4801C25.1146 21.7729 27.3892 24.0657 29.6639 26.3571C30.5179 27.2166 31.5599 27.2153 32.4125 26.3571C34.4819 24.2712 36.5513 22.1866 38.6194 20.1006L38.6208 20.0993Z" fill="black"/>
<path d="M46.8604 9.09756C44.5619 6.77673 42.2608 4.45857 39.957 2.14307C39.6512 1.83612 39.3493 1.59189 39.0302 1.39571C37.1541 0.239962 34.9073 0.532235 33.3052 2.14174C32.0064 3.44696 30.7102 4.75484 29.4127 6.06273L25.765 9.7395C24.1127 11.4037 22.4603 13.0693 20.8106 14.7362C18.9173 16.6499 18.9173 19.534 20.8106 21.4438C22.8165 23.4683 25.3122 25.9893 27.718 28.3982C28.0768 28.7559 28.4872 29.0655 28.9056 29.2937C29.5848 29.6621 30.3117 29.8423 31.0346 29.8423C32.2328 29.8423 33.4218 29.3485 34.3658 28.3996C35.8473 26.9102 37.3276 25.4181 38.8065 23.9261L42.47 20.2333C43.9344 18.7586 45.3987 17.2839 46.8604 15.8052C48.7829 13.8593 48.7829 11.038 46.8604 9.09756ZM44.8294 13.838C42.7613 15.9239 40.6919 18.0099 38.6224 20.0945C36.553 22.1804 34.4849 24.2664 32.4155 26.351C31.5629 27.2105 30.5195 27.2118 29.6669 26.351C27.3922 24.0595 25.1176 21.7667 22.8443 19.4739C21.9916 18.6131 21.993 17.5615 22.8443 16.7033C26.9818 12.5314 31.1206 8.36088 35.2595 4.18898C36.1121 3.32951 37.1541 3.32818 38.0081 4.18898C40.2828 6.48045 42.5574 8.77326 44.8307 11.0661C45.6834 11.9269 45.6834 12.9772 44.8307 13.8367L44.8294 13.838Z" fill="white"/>
<path d="M42.2074 10.8434C42.4537 10.5938 42.4325 10.2789 42.1386 9.97993C41.6368 9.46878 41.131 8.96298 40.6266 8.4545C40.1102 7.93402 39.5952 7.41086 39.0762 6.89305C38.7928 6.61011 38.483 6.5901 38.2381 6.82899C38.2354 6.83165 38.2341 6.83432 38.2314 6.83566C39.5568 8.17157 40.8821 9.50749 42.2074 10.8434Z" fill="white"/>
<path d="M26.5635 20.8125C26.541 21.2783 26.7078 21.7534 27.0653 22.111C27.4162 22.462 27.8809 22.6249 28.339 22.6022C27.7472 22.0056 27.1554 21.4091 26.5635 20.8125Z" fill="white"/>
<path d="M27.0652 22.1087C26.3966 21.4401 26.39 20.3644 27.052 19.6958C27.7113 19.0298 28.7996 19.0285 29.4511 19.6918C30.1078 20.3604 30.1025 21.4467 29.4405 22.1114C28.7851 22.768 27.7232 22.768 27.0652 22.1087ZM28.654 21.2973C28.8658 21.0811 28.8632 20.7274 28.65 20.5072C28.4289 20.279 28.0635 20.2763 27.8477 20.5019C27.6385 20.7194 27.6385 21.0797 27.8477 21.2959C28.0661 21.5202 28.4355 21.5215 28.654 21.2986V21.2973Z" fill="white"/>
<path d="M40.6258 8.44803C41.1302 8.9565 41.636 9.46364 42.1378 9.97345C42.4317 10.2724 42.4529 10.5874 42.2066 10.8369C41.9617 11.0852 41.6333 11.0638 41.3474 10.7755C40.3252 9.7479 39.3044 8.71894 38.2849 7.68732C38.0029 7.40172 37.9884 7.0654 38.2386 6.82117C38.4822 6.58228 38.792 6.6023 39.0767 6.88523C39.5957 7.40305 40.1107 7.9262 40.6271 8.44669L40.6258 8.44803Z" fill="white"/>
<path d="M28.6541 21.2992C28.4357 21.5221 28.0663 21.5207 27.8478 21.2965C27.6386 21.0803 27.6373 20.72 27.8478 20.5024C28.0636 20.2782 28.4291 20.2809 28.6502 20.5078C28.8647 20.728 28.866 21.0816 28.6541 21.2978V21.2992Z" fill="#1D44F7"/>
<path d="M57.3212 8.01347C56.2858 7.30748 55.0188 6.94847 53.5557 6.94847C52.5442 6.94847 51.6545 7.11396 50.9104 7.44093C50.2881 7.71319 49.8406 7.96008 49.5533 8.18963V0.882812H45.5879V22.0799L45.6514 22.1026C46.336 22.3402 47.2402 22.5697 48.3365 22.7833C49.4368 22.9981 50.6549 23.1076 51.955 23.1076C53.7133 23.1076 55.2478 22.7232 56.5162 21.9652C57.7833 21.2071 58.7803 20.1862 59.4793 18.9303C60.1771 17.6745 60.5319 16.2692 60.5319 14.7544C60.5319 13.3278 60.2539 12.0119 59.7071 10.8428C59.1589 9.67235 58.3566 8.71946 57.3225 8.0148L57.3212 8.01347ZM56.5017 14.8505C56.5017 15.6699 56.3216 16.4547 55.9668 17.1794C55.6132 17.9027 55.0903 18.4979 54.415 18.949C53.7411 19.3988 52.8911 19.627 51.8902 19.627C51.2162 19.627 50.7171 19.5949 50.4046 19.5322C50.1094 19.4722 49.8234 19.4041 49.552 19.328V13.6894C49.552 12.6885 49.8446 11.8918 50.4205 11.3219C50.9964 10.7507 51.8465 10.4624 52.9467 10.4624C53.7742 10.4624 54.4547 10.6666 54.9685 11.071C55.4861 11.478 55.8741 12.0225 56.123 12.6912C56.3732 13.3651 56.5003 14.0925 56.5003 14.8519L56.5017 14.8505Z" fill="white"/>
<path d="M67.316 1.45312H63.3506V23.1614H67.316V1.45312Z" fill="white"/>
<path d="M77.3945 18.0428L72.8201 7.51832L72.7949 7.46094H68.2324L75.4072 22.9394L74.9412 24.1285C74.6049 25.0173 74.2646 25.6819 73.9309 26.1037C73.6052 26.5134 73.2107 26.7136 72.7248 26.7136C72.3607 26.7136 72.0548 26.6375 71.8139 26.4867C71.561 26.3279 71.328 26.1611 71.1188 25.9929L71.0367 25.9275L69.2387 28.7662L69.3049 28.8195C69.7378 29.1679 70.2476 29.4561 70.8182 29.6723C71.3915 29.8899 72.1197 30.0006 72.9803 30.0006C73.9971 30.0006 74.8445 29.7778 75.4972 29.34C76.146 28.9036 76.6888 28.3351 77.1099 27.6491C77.5269 26.9711 77.895 26.2171 78.2061 25.407C78.5146 24.6023 78.8218 23.8255 79.1171 23.1035L85.8231 7.46094H81.487L77.3932 18.0428H77.3945Z" fill="white"/>
<path d="M117.075 15.0333L122.804 7.46094H118.309L114.941 12.16L111.604 7.46094H106.6L112.487 15.419L106.719 23.1609H111.212L114.62 18.295L117.997 23.1609H123L117.075 15.0333Z" fill="white"/>
<path d="M20.6055 9.20217C19.5781 8.0571 18.0846 7.47656 16.1674 7.47656C15.1148 7.47656 14.1655 7.64739 13.3473 7.9837C12.5754 8.30133 11.8114 8.83516 11.0753 9.57052C10.3391 8.83516 9.5752 8.30133 8.8033 7.9837C7.98507 7.64739 7.03576 7.47656 5.98317 7.47656C4.06602 7.47656 2.57254 8.0571 1.54511 9.20217C0.51901 10.3446 0 11.902 0 13.8305V23.1192H3.21203V13.8625C3.21203 12.9443 3.44638 12.217 3.90846 11.7005C4.36789 11.1867 5.00606 10.9251 5.80708 10.9251C6.81862 10.9251 7.6395 11.3041 8.24722 12.0515C8.85891 12.8042 9.17005 13.7397 9.17005 14.8301V23.1192H12.9832V14.8301C12.9832 13.7397 13.2943 12.8042 13.906 12.0515C14.5137 11.3041 15.3346 10.9251 16.3462 10.9251C17.1459 10.9251 17.7853 11.1854 18.2448 11.7005C18.7069 12.2183 18.9412 12.9457 18.9412 13.8625V23.1192H22.7173L22.1519 22.281V13.8292C22.1519 11.8994 21.6329 10.3432 20.6081 9.20084L20.6055 9.20217Z" fill="white"/>
<path d="M95.6841 0C92.8653 0 89.5725 1.65488 89.5725 6.32057V7.48032H86.6279V11.1224H89.5725V23.1589H93.665V11.1224H98.3056V7.48032H93.665V6.32057C93.665 4.60163 94.515 3.57667 95.9397 3.57667C96.6904 3.57667 97.4358 3.83825 98.2884 4.40011L98.3772 4.45883L99.9011 1.35193L99.8309 1.30655C98.5453 0.464433 97.073 0.00133458 95.6828 0.00133458L95.6841 0Z" fill="white"/>
<path d="M105.151 7.57031H101.059V23.1595H105.151V7.57031Z" fill="white"/>
<path d="M103.105 6.39518C104.43 6.39518 105.504 5.32384 105.504 4.00228C105.504 2.68071 104.43 1.60938 103.105 1.60938C101.78 1.60938 100.706 2.68071 100.706 4.00228C100.706 5.32384 101.78 6.39518 103.105 6.39518Z" fill="white"/>
</g>
<defs>
<clipPath id="clip0_1954_8593">
<rect width="123" height="30" fill="white"/>
</clipPath>
</defs>
</svg>
